<svg width="389" height="437" viewBox="0 0 389 437" fill="none" xmlns="http://www.w3.org/2000/svg">
<g filter="url(#filter0_d_1503_7634)">
<path d="M273.8 289L260.6 334.1C244.2 341.5 166.3 349.8 129 334.1C125.5 322.1 117.7 292.9 116.9 289C133.4 300.8 185.8 300.9 194.3 300.9C213.6 304.1 255.6 293.3 273.8 289Z" fill="#439AE6"/>
<path d="M160.4 314.6L159 325.7L156.8 325.4L157.7 318.2L153.8 325L152.1 324.8L150.1 317.2L149.2 324.4L147 324.1L148.4 313L150.9 313.3L153.4 322L158 314.2L160.4 314.6Z" fill="white"/>
<path d="M170.6 317.7L164.1 330.3L161.7 330.1L164 325.9L161.2 317L163.7 317.2L165.5 323.6L168.3 317.6L170.6 317.7Z" fill="white"/>
<path d="M187.3 316.101L186.9 327.301L184.7 327.201L184.9 319.901L181.7 327.101L180 327.001L177.2 319.601L177 326.901L174.8 326.801L175.2 315.601L177.7 315.701L181 324.101L184.8 315.901L187.3 316.101Z" fill="white"/>
<path d="M189 320.4C189.4 319.7 189.8 319.2 190.5 318.8C191.1 318.4 191.8 318.2 192.6 318.2C193.3 318.2 193.8 318.3 194.3 318.6C194.8 318.9 195.2 319.2 195.5 319.6V318.3H197.8V327.2H195.5V325.9C195.2 326.3 194.8 326.7 194.3 326.9C193.8 327.2 193.2 327.3 192.5 327.3C191.8 327.3 191.1 327.1 190.5 326.7C189.9 326.3 189.4 325.8 189 325.1C188.6 324.4 188.5 323.6 188.5 322.7C188.5 321.9 188.6 321.1 189 320.4ZM195.1 321.4C194.9 321 194.6 320.7 194.2 320.5C193.8 320.3 193.4 320.2 193 320.2C192.6 320.2 192.2 320.3 191.8 320.5C191.4 320.7 191.2 321 190.9 321.4C190.6 321.8 190.6 322.3 190.6 322.8C190.6 323.3 190.7 323.8 190.9 324.2C191.1 324.6 191.4 324.9 191.8 325.1C192.2 325.3 192.5 325.4 192.9 325.4C193.3 325.4 193.7 325.3 194.1 325.1C194.5 324.9 194.8 324.6 195 324.2C195.2 323.8 195.3 323.3 195.3 322.8C195.4 322.3 195.3 321.8 195.1 321.4Z" fill="white"/>
<path d="M207.1 319.099C207.8 319.799 208.1 320.699 208.1 321.899L208.2 327.099L206 327.199L205.9 322.299C205.9 321.599 205.7 321.099 205.3 320.699C204.9 320.299 204.5 320.199 203.8 320.199C203.2 320.199 202.7 320.399 202.4 320.799C202.1 321.199 201.9 321.699 201.9 322.399L202 327.299L199.8 327.399L199.6 318.499L201.8 318.399V319.499C202.1 319.099 202.5 318.799 202.9 318.599C203.4 318.399 203.9 318.199 204.4 318.199C205.6 318.099 206.4 318.399 207.1 319.099Z" fill="white"/>
<path d="M209.9 320.101C210.2 319.401 210.7 318.801 211.3 318.401C211.9 318.001 212.6 317.801 213.3 317.701C213.9 317.701 214.4 317.801 215 318.001C215.5 318.201 216 318.501 216.3 318.901L216.1 314.701L218.4 314.601L219 326.401L216.7 326.501L216.6 325.201C216.3 325.701 216 326.001 215.5 326.301C215 326.601 214.4 326.801 213.8 326.801C213.1 326.801 212.4 326.701 211.7 326.301C211.1 325.901 210.5 325.401 210.2 324.801C209.8 324.101 209.6 323.301 209.5 322.401C209.5 321.601 209.6 320.801 209.9 320.101ZM216.1 320.801C215.9 320.401 215.6 320.101 215.2 320.001C214.8 319.801 214.4 319.701 214 319.801C213.6 319.801 213.2 319.901 212.9 320.201C212.6 320.401 212.3 320.701 212.1 321.101C211.9 321.501 211.8 322.001 211.8 322.501C211.8 323.001 212 323.501 212.2 323.901C212.4 324.301 212.7 324.601 213.1 324.801C213.5 325.001 213.9 325.101 214.3 325.101C214.7 325.101 215.1 325.001 215.5 324.701C215.9 324.501 216.1 324.201 216.3 323.801C216.5 323.401 216.6 322.901 216.5 322.401C216.4 321.901 216.3 321.201 216.1 320.801Z" fill="white"/>
<path d="M220.4 319.5C220.7 318.8 221.1 318.2 221.7 317.8C222.3 317.4 222.9 317.1 223.7 317.1C224.4 317 224.9 317.1 225.5 317.4C226 317.6 226.4 317.9 226.8 318.3L226.7 317L228.9 316.8L229.6 325.6L227.4 325.8L227.3 324.5C227 324.9 226.7 325.3 226.2 325.6C225.7 325.9 225.1 326.1 224.5 326.2C223.8 326.3 223.1 326.1 222.4 325.8C221.8 325.5 221.2 325 220.8 324.3C220.4 323.6 220.1 322.8 220.1 321.9C220 321.1 220.1 320.3 220.4 319.5ZM226.6 320C226.4 319.6 226 319.4 225.7 319.2C225.4 319 224.9 319 224.5 319C224.1 319 223.7 319.2 223.4 319.4C223.1 319.6 222.8 320 222.6 320.4C222.4 320.8 222.3 321.3 222.4 321.8C222.4 322.3 222.6 322.8 222.8 323.2C223.1 323.6 223.4 323.9 223.7 324C224 324.1 224.5 324.3 224.9 324.2C225.3 324.2 225.7 324 226 323.8C226.3 323.6 226.6 323.2 226.8 322.8C227 322.4 227 321.9 227 321.4C227 320.9 226.9 320.4 226.6 320Z" fill="white"/>
<path d="M233.7 318.1L234.2 322.4C234.2 322.7 234.3 322.9 234.5 323C234.7 323.1 234.9 323.2 235.2 323.1L236.2 323L236.4 324.9L235 325.1C233.1 325.3 232.1 324.5 231.9 322.7L231.4 318.5L230.4 318.6L230.2 316.8L231.2 316.7L231 314.5L233.2 314.2L233.4 316.4L235.4 316.2L235.6 318L233.7 318.1Z" fill="white"/>
<path d="M245.8 319.7L239.4 320.7C239.5 321.3 239.8 321.8 240.3 322.1C240.7 322.4 241.3 322.5 241.8 322.4C242.6 322.3 243.2 321.8 243.4 321.1L245.8 320.7C245.7 321.6 245.3 322.3 244.7 323C244.1 323.7 243.2 324.1 242.2 324.2C241.4 324.3 240.6 324.3 239.8 324C239.1 323.7 238.5 323.3 238 322.6C237.5 321.9 237.2 321.2 237.1 320.3C237 319.4 237 318.6 237.3 317.8C237.6 317.1 238 316.5 238.6 316C239.2 315.5 239.9 315.2 240.8 315.1C241.6 315 242.4 315 243.1 315.3C243.8 315.6 244.4 316 244.9 316.6C245.4 317.2 245.7 317.9 245.8 318.8C245.8 319.2 245.8 319.5 245.8 319.7ZM243.4 318.6C243.3 318 243 317.6 242.6 317.3C242.1 317 241.6 316.9 241.1 317C240.6 317.1 240.1 317.3 239.8 317.7C239.5 318.1 239.3 318.6 239.3 319.2L243.4 318.6Z" fill="white"/>
<path d="M199.5 301.9C141.3 302.7 120.2 294.5 117.6 290.7C116.5 289.5 116.5 287.5 117.6 286.2C125.7 276.8 184.5 276 194.1 276C240.7 277.5 267.7 279.5 273.1 287.1C274.2 288 273.5 289.8 273.3 290.1C267.4 298.8 203.6 302.2 199.5 301.9Z" fill="#67A6DC"/>
<path d="M300.8 224.7L282.8 276.9C260.3 285.8 153.6 295.7 102.4 276.9C97.5001 262.5 86.7001 228.2 85.6001 223.6C108.3 237.9 180.4 237.2 192 237.2C218.6 241.1 275.8 229.8 300.8 224.7Z" fill="#3686CC"/>
<path d="M198.78 238.971C117.323 239.279 89.8034 230.151 86.2008 225.742C84.5997 224.408 84.5997 222.05 86.2008 220.511C97.4087 209.743 179.867 208 193.076 208C257.321 209.743 296.849 215.179 300.151 221.845C301.753 222.87 300.652 225.024 300.352 225.331C292.146 235.484 204.284 239.381 198.78 238.971Z" fill="#4991CF"/>
<path d="M340 152L316.7 211.3C286.1 221.5 140.9 232.8 71.3 211.3C64.7 194.8 50.1 155.9 48.7 150.7C79.4 167 177.2 165.8 193 165.8C229.4 170.2 306.2 157.9 340 152Z" fill="#2C75B4"/>
<path d="M202.4 171.3C92.6 171.7 55.3 160.4 50.5 154.7C48.4 152.9 48.4 149.9 50.5 148C65.6 134.1 176.9 131.4 194.7 131.4C281.2 133.6 334.3 145.1 338.9 149.3C341 150.7 339.6 153.4 339.2 153.8C328.3 166.8 209.8 171.8 202.4 171.3Z" fill="#3D7CB4"/>
<path d="M378.5 69.1998L348.3 135C310 146.1 127.2 158.6 39.8 135C31.5 116.9 11.8 74.4998 10 68.7998C48.6 86.5998 172.9 85.1998 192.9 85.1998C238.3 90.2998 335.8 75.7998 378.5 69.1998Z" fill="#25659C"/>
<path d="M195.2 49.4004C297.2 49.4004 378.5 57.9004 378.5 68.2004C378.5 78.5004 297.1 87.1004 195.2 87.1004C93.2 87.1004 10 78.7004 10 68.3004C10 57.9004 93.2 49.4004 195.2 49.4004Z" fill="#25659C"/>
<path d="M120.4 8.7002L73.3 15.5002L81.8 74.5002L128.9 67.8002L120.4 8.7002Z" fill="white"/>
<path d="M118.8 36.7002L84.8999 41.1002L85.0999 42.6002L119 38.2002L118.8 36.7002Z" fill="#E0E0E0"/>
<path d="M118.8 41.5996L85.8999 46.7996L86.0999 48.4996L119 43.2996L118.8 41.5996Z" fill="#E0E0E0"/>
<path d="M119.8 47.4004L85.8999 52.6004L86.0999 54.3004L120 49.1004L119.8 47.4004Z" fill="#E0E0E0"/>
<path d="M120.8 53.2998L86.8999 57.6998L87.0999 59.1998L121 54.7998L120.8 53.2998Z" fill="#E0E0E0"/>
<path opacity="0.95" d="M93.7 28.4004L82.9 30.0004C81.5 25.8004 81 21.3004 81.1 17.0004L91.9 15.4004C91.3 19.7004 91.9 24.3004 93.7 28.4004Z" fill="#74D57D"/>
<path d="M115.9 12.4004L95.7 15.7004L95.9 17.3004L116.1 14.0004L115.9 12.4004Z" fill="#E0E0E0"/>
<path d="M116.9 17.2998L96.7 19.8998L96.9 21.1998L117.1 18.5998L116.9 17.2998Z" fill="#E0E0E0"/>
<path d="M116.9 22.0996L97.6001 24.6996L97.8001 25.9996L117.1 23.3996L116.9 22.0996Z" fill="#E0E0E0"/>
<path d="M117.8 27L98.5 29.6L98.7 30.9L118 28.3L117.8 27Z" fill="#E0E0E0"/>
<path d="M151.8 11.9004L104.6 18.3004L112.7 77.4004L159.9 71.0004L151.8 11.9004Z" fill="white"/>
<path d="M150 45.5L116.1 50.6L116.3 52.4L150.2 47.3L150 45.5Z" fill="#E0E0E0"/>
<path d="M150 51.2998L117.1 55.6998L117.3 57.1998L150.2 52.7998L150 51.2998Z" fill="#E0E0E0"/>
<path d="M150.9 56.2002L117 61.3002L117.2 63.1002L151.1 58.0002L150.9 56.2002Z" fill="#E0E0E0"/>
<path d="M151.9 62L118 66.4L118.2 67.9L152.1 63.5L151.9 62Z" fill="#E0E0E0"/>
<path opacity="0.95" d="M124.8 37.1L113.9 38.6C112.5 34.3 112 29.9 112.1 25.5L123 24C122.4 28.6 123.1 33 124.8 37.1Z" fill="#D3D574"/>
<path d="M147 22.0996L127.7 24.6996L128 25.9996L147.3 23.3996L147 22.0996Z" fill="#E0E0E0"/>
<path d="M148 27L127.8 29.6L128 30.9L148.2 28.3L148 27Z" fill="#E0E0E0"/>
<path d="M148 31.9004L128.7 34.5004L128.9 35.8004L148.2 33.2004L148 31.9004Z" fill="#E0E0E0"/>
<path d="M149 35.7998L129.7 39.0998L129.9 40.6998L149.2 37.3998L149 35.7998Z" fill="#E0E0E0"/>
<path d="M203.8 9.89961L156.2 8.09961L154 67.6996L201.6 69.4996L203.8 9.89961Z" fill="white"/>
<path d="M195.9 42.8996L161.9 41.5996L161.8 43.2996L195.8 44.5996L195.9 42.8996Z" fill="#E0E0E0"/>
<path d="M195.9 48.7004L161.9 47.4004L161.8 49.1004L195.8 50.4004L195.9 48.7004Z" fill="#E0E0E0"/>
<path d="M195.9 53.5998L161.9 52.2998L161.8 53.9998L195.8 55.2998L195.9 53.5998Z" fill="#E0E0E0"/>
<path d="M194.9 59.3996L160.9 58.0996L160.8 59.7996L194.8 61.0996L194.9 59.3996Z" fill="#E0E0E0"/>
<path opacity="0.95" d="M173 29.8998L162.1 29.4998C161.5 25.0998 161.7 20.5998 162.6 16.2998L173.5 16.6998C172.1 20.9998 172 25.4998 173 29.8998Z" fill="#749BD5"/>
<path d="M197.8 18.9002L177.4 18.2002V19.5002L197.8 20.2002V18.9002Z" fill="#E0E0E0"/>
<path d="M196.9 23.7996L177.4 23.0996V24.3996L196.9 25.0996V23.7996Z" fill="#E0E0E0"/>
<path d="M196.9 28.7L177.4 28V29.3L196.9 30V28.7Z" fill="#E0E0E0"/>
<path d="M196.9 33.4998L177.4 32.7998V34.0998L196.9 34.7998V33.4998Z" fill="#E0E0E0"/>
<path d="M235.6 17.0996L188.1 19.7996L191.5 79.3996L239 76.6996L235.6 17.0996Z" fill="white"/>
<path d="M230.8 50.4004L196.8 52.5004L196.9 54.3004L230.9 52.2004L230.8 50.4004Z" fill="#E0E0E0"/>
<path d="M230.8 56.2002L196.8 58.3002L196.9 60.1002L230.9 58.0002L230.8 56.2002Z" fill="#E0E0E0"/>
<path d="M231.8 62L197.8 63.6L197.9 64.9L231.9 63.2L231.8 62Z" fill="#E0E0E0"/>
<path d="M231.8 66.9004L197.8 69.0004L197.9 70.8004L231.9 68.7004L231.8 66.9004Z" fill="#E0E0E0"/>
<path opacity="0.95" d="M206.6 39.9L195.9 40.6C194.9 36.3 194.6 31.9 195.1 27.7L205.8 27C204.9 31.3 205.1 35.8 206.6 39.9Z" fill="#FCB2AA"/>
<path d="M229.9 27L210.5 27.9L210.6 29L230 28.1L229.9 27Z" fill="#E0E0E0"/>
<path d="M230.8 31.9004L210.5 32.8004L210.6 33.9004L230.9 33.0004L230.8 31.9004Z" fill="#E0E0E0"/>
<path d="M230.8 36.7002L210.5 37.6002L210.6 38.7002L230.9 37.8002L230.8 36.7002Z" fill="#E0E0E0"/>
<path d="M230.8 40.5996L211.5 41.9996L211.6 43.5996L231 42.1996L230.8 40.5996Z" fill="#E0E0E0"/>
<path d="M284.2 19.4004L237 13.4004L229.4 72.6004L276.6 78.6004L284.2 19.4004Z" fill="white"/>
<path d="M273.8 54.5998L239.9 50.2998L239.7 51.8998L273.6 56.1998L273.8 54.5998Z" fill="#E0E0E0"/>
<path d="M272.8 59.5002L238.9 55.2002L238.7 56.8002L272.6 61.1002L272.8 59.5002Z" fill="#E0E0E0"/>
<path d="M271.8 65.3L237.9 61L237.7 62.6L271.6 66.9L271.8 65.3Z" fill="#E0E0E0"/>
<path d="M270.8 71.2004L237.9 66.9004L237.7 68.5004L270.6 72.8004L270.8 71.2004Z" fill="#E0E0E0"/>
<path opacity="0.95" d="M251.6 39.7L240.7 38.2C240.5 33.7 241.1 29.2 242.4 25L253.4 26.5C251.6 30.6 251 35.2 251.6 39.7Z" fill="#74BED5"/>
<path d="M276.7 30.5L257.4 28L257.2 29.4L276.5 31.9L276.7 30.5Z" fill="#E0E0E0"/>
<path d="M276.7 35.4004L256.5 32.9004L256.3 34.3004L276.5 36.8004L276.7 35.4004Z" fill="#E0E0E0"/>
<path d="M275.7 40.2002L256.4 37.7002L256.2 39.1002L275.5 41.6002L275.7 40.2002Z" fill="#E0E0E0"/>
<path d="M275.7 45.0996L255.5 42.5996L255.3 43.9996L275.5 46.4996L275.7 45.0996Z" fill="#E0E0E0"/>
<path d="M327.5 20L282.3 5L263.6 61.7L308.8 76.6L327.5 20Z" fill="white"/>
<path d="M310.7 49.8002L278.1 38.7002L277.6 40.3002L310.2 51.4002L310.7 49.8002Z" fill="#E0E0E0"/>
<path d="M308.8 54.6L276.2 43.5L275.7 45.1L308.3 56.2L308.8 54.6Z" fill="#E0E0E0"/>
<path d="M306.8 59.6004L275.2 49.4004L274.7 50.9004L306.3 61.1004L306.8 59.6004Z" fill="#E0E0E0"/>
<path d="M305.9 65.3002L273.3 54.2002L272.8 55.8002L305.4 66.9002L305.9 65.3002Z" fill="#E0E0E0"/>
<path opacity="0.95" d="M292 30.9002L281.6 27.5002C282.3 23.2002 283.6 19.1002 285.8 15.2002L296.2 18.6002C293.6 22.2002 292.1 26.5002 292 30.9002Z" fill="#F7B38E"/>
<path d="M318.5 26.8002L300.4 21.2002L300 22.4002L318.1 28.0002L318.5 26.8002Z" fill="#E0E0E0"/>
<path d="M317.5 31.5996L298.4 25.0996L298 26.3996L317.1 32.8996L317.5 31.5996Z" fill="#E0E0E0"/>
<path d="M315.6 36.4004L297.5 29.9004L297.1 31.2004L315.2 37.7004L315.6 36.4004Z" fill="#E0E0E0"/>
<path d="M314.6 40.3998L295.5 34.7998L295.1 35.9998L314.2 41.5998L314.6 40.3998Z" fill="#E0E0E0"/>
<path d="M314.4 60.5996L312.9 64.5996H80.2999L79.5999 60.5996C59.5999 62.7996 48.8999 65.1996 48.8999 68.2996C48.8999 75.5996 114.6 81.4996 195.2 81.4996C275.7 81.4996 339.9 75.5996 339.9 68.2996C339.9 65.4996 329.9 62.6996 314.4 60.5996Z" fill="#3F86B2"/>
<path d="M112.693 198.2L107.105 197.662L105.851 200.031L103 199.708L109.272 187L112.465 187.323L116 201L113.035 200.677L112.693 198.2ZM112.123 195.938L110.64 190.231L108.132 195.508L112.123 195.938Z" fill="white"/>
<path d="M121 187.229L120.057 202L118 201.771L118.943 187L121 187.229Z" fill="white"/>
<path d="M129.771 191.491C130.343 191.823 130.914 192.265 131.143 192.817L131.257 191.27L134 191.491L133.086 202.209C132.971 203.203 132.743 204.087 132.286 204.75C131.829 205.524 131.143 206.076 130.229 206.518C129.314 206.96 128.286 207.071 127.257 206.96C125.657 206.85 124.514 206.408 123.486 205.634C122.457 204.861 122 203.756 122 202.651L124.743 202.872C124.857 203.424 125.2 203.756 125.657 204.198C126.114 204.529 126.686 204.75 127.486 204.75C128.286 204.861 128.971 204.64 129.543 204.198C130.114 203.756 130.457 203.093 130.457 202.209L130.571 200.552C130.114 200.994 129.657 201.435 128.971 201.767C128.286 202.098 127.486 202.209 126.8 202.098C125.886 201.988 124.971 201.767 124.4 201.214C123.6 200.662 123.029 199.999 122.686 199.226C122.343 198.342 122.114 197.347 122.229 196.353C122.343 195.248 122.571 194.364 123.143 193.59C123.714 192.817 124.286 192.154 125.2 191.712C126 191.27 126.914 191.16 127.829 191.16C128.4 190.828 129.086 191.049 129.771 191.491ZM130.571 194.916C130.343 194.364 130 194.032 129.543 193.701C129.086 193.369 128.629 193.259 128.057 193.259C127.486 193.259 127.029 193.259 126.571 193.48C126.114 193.701 125.657 194.032 125.429 194.474C125.086 194.916 124.971 195.469 124.857 196.132C124.857 196.795 124.857 197.347 125.086 197.9C125.314 198.452 125.657 198.784 126.114 199.115C126.571 199.447 127.029 199.557 127.6 199.668C128.171 199.668 128.629 199.668 129.086 199.336C129.543 199.005 130 198.784 130.229 198.342C130.571 197.9 130.686 197.347 130.8 196.684C130.914 195.911 130.8 195.358 130.571 194.916Z" fill="white"/>
<path d="M137.46 202.12C136.686 201.57 136.023 200.91 135.581 200.14C135.139 199.26 134.918 198.27 135.028 197.28C135.139 196.18 135.36 195.19 135.913 194.42C136.465 193.54 137.128 192.99 138.013 192.55C138.897 192.11 139.892 192 140.776 192C141.882 192.11 142.766 192.33 143.54 192.88C144.424 193.43 144.977 194.09 145.419 194.86C145.861 195.74 146.082 196.73 145.972 197.72C145.861 198.82 145.64 199.81 144.977 200.58C144.424 201.46 143.65 202.01 142.877 202.45C141.992 202.89 140.997 203 140.003 203C139.118 202.78 138.234 202.67 137.46 202.12ZM141.771 200.36C142.213 200.14 142.656 199.81 142.877 199.37C143.098 198.93 143.319 198.27 143.429 197.61C143.54 196.62 143.319 195.74 142.766 195.3C142.213 194.75 141.55 194.42 140.776 194.31C140.003 194.31 139.339 194.53 138.787 195.08C138.234 195.63 137.902 196.4 137.792 197.28C137.681 198.27 137.902 199.15 138.455 199.59C138.897 200.14 139.56 200.47 140.334 200.58C140.776 200.58 141.329 200.58 141.771 200.36Z" fill="white"/>
<path d="M152.17 192.561C152.678 192.224 153.288 192.112 154 192.112L153.898 194.918H153.186C152.373 194.918 151.763 195.031 151.356 195.48C150.949 195.929 150.644 196.602 150.644 197.5L150.441 203L148 202.888L148.508 192L150.949 192.112L150.847 193.796C151.254 193.235 151.661 192.786 152.17 192.561Z" fill="white"/>
<path d="M159.5 193.23L159 203L156 202.899L156.5 193.129L159.5 193.23ZM156.625 191.518C156.25 191.216 156.125 190.813 156.125 190.41C156.125 190.007 156.375 189.604 156.75 189.403C157.125 189.101 157.625 189 158.125 189C158.625 189 159.125 189.201 159.5 189.504C159.875 189.806 160 190.209 160 190.612C160 191.014 159.75 191.417 159.375 191.619C159 191.82 158.5 192.022 158 192.022C157.375 192.022 157 191.82 156.625 191.518Z" fill="white"/>
<path d="M164.828 195.488L164.621 200.073C164.621 200.366 164.724 200.659 164.828 200.756C165.034 200.951 165.241 200.951 165.655 201.049H166.897L166.793 203L165.138 202.902C163.069 202.805 162.034 201.829 162.034 199.878L162.241 195.293H161L161.103 193.341H162.345L162.448 191L164.931 191.098L164.828 193.439L167 193.537L166.897 195.488H164.828Z" fill="white"/>
<path d="M177.188 194.136C177.818 194.455 178.238 194.985 178.553 195.727C178.868 196.47 179.078 197.212 178.973 198.061L178.763 204L176.243 203.894L176.348 198.167C176.348 197.318 176.138 196.682 175.823 196.258C175.404 195.833 174.879 195.515 174.144 195.515C173.409 195.515 172.884 195.727 172.359 196.152C171.939 196.576 171.729 197.212 171.624 198.061L171.519 203.788L169 203.682L169.315 190L171.834 190.106L171.729 194.879C172.044 194.455 172.569 194.03 173.094 193.818C173.619 193.606 174.249 193.5 174.984 193.5C175.928 193.606 176.663 193.818 177.188 194.136Z" fill="white"/>
<path d="M197.778 194.122C198.556 195.02 199 196.143 199 197.602L198.889 204H196.222L196.333 197.939C196.333 197.041 196.111 196.367 195.667 195.918C195.222 195.469 194.667 195.245 193.889 195.245C193.111 195.245 192.556 195.469 192.111 195.918C191.667 196.367 191.444 197.041 191.444 197.939L191.333 204H188.667L188.778 197.939C188.778 197.041 188.556 196.367 188.111 195.918C187.667 195.469 187.111 195.245 186.333 195.245C185.556 195.245 185 195.469 184.444 195.918C184 196.367 183.778 197.041 183.778 197.939L183.667 204H181L181.111 193.112H183.778V194.459C184.111 194.01 184.556 193.673 185.222 193.337C185.778 193.112 186.444 193 187.111 193C188 193 188.778 193.224 189.333 193.561C190 193.898 190.556 194.459 190.889 195.133C191.222 194.459 191.778 194.01 192.444 193.561C193.111 193.224 193.889 193 194.556 193C195.889 193 197 193.449 197.778 194.122Z" fill="white"/>
<path d="M201.533 192.619C201.133 192.317 201 192.014 201 191.511C201 191.108 201.133 190.705 201.533 190.403C201.933 190.101 202.467 190 203 190C203.533 190 204.067 190.101 204.467 190.403C204.867 190.705 205 191.007 205 191.511C205 191.914 204.867 192.317 204.467 192.619C204.067 192.921 203.533 193.022 203 193.022C202.333 193.022 201.933 192.921 201.533 192.619ZM204.467 194.23V204H201.267V194.23H204.467Z" fill="white"/>
<path d="M206.811 195.778C207.274 194.889 207.968 194.222 208.779 193.778C209.589 193.333 210.632 193 211.558 193C212.947 193 214.105 193.333 215.032 194C215.958 194.667 216.653 195.667 217 196.778H213.989C213.874 196.333 213.526 195.889 213.179 195.667C212.832 195.444 212.253 195.222 211.674 195.222C210.863 195.222 210.168 195.556 209.705 196.111C209.242 196.667 209.011 197.556 209.011 198.444C209.011 199.444 209.242 200.333 209.821 200.778C210.284 201.333 210.979 201.667 211.789 201.667C212.947 201.667 213.758 201.111 213.989 200.111H217C216.653 201.333 216.074 202.222 215.147 202.889C214.221 203.556 213.063 204 211.789 204C210.632 204 209.705 203.778 208.895 203.333C207.968 202.889 207.389 202.222 206.811 201.333C206.232 200.444 206 199.444 206 198.444C206.116 197.667 206.347 196.667 206.811 195.778Z" fill="white"/>
<path d="M222.867 194.302C223.408 193.27 224.275 192.444 225.142 191.929C226.117 191.31 227.2 191 228.5 191C230.017 191 231.208 191.31 232.4 192.032C233.592 192.754 234.35 193.786 234.783 194.921L231.75 195.024C231.425 194.405 230.992 193.992 230.342 193.683C229.8 193.373 229.15 193.27 228.392 193.27C227.633 193.27 226.875 193.476 226.442 193.889C225.792 194.302 225.358 194.817 225.033 195.437C224.708 196.056 224.6 196.881 224.6 197.603C224.6 198.429 224.817 199.254 225.142 199.77C225.467 200.389 226.008 200.905 226.658 201.214C227.308 201.524 227.958 201.73 228.717 201.73C229.475 201.73 230.125 201.524 230.667 201.214C231.208 200.905 231.642 200.389 231.967 199.77L235 199.667C234.567 201.008 233.808 201.936 232.833 202.762C231.75 203.484 230.558 203.897 228.933 204C227.633 204 226.55 203.794 225.467 203.278C224.383 202.762 223.517 201.937 222.975 201.111C222.325 200.183 222 199.151 222 197.81C222 196.365 222.325 195.23 222.867 194.302Z" fill="white"/>
<path d="M245.418 193.4C246.092 193.7 246.653 194.2 246.99 194.8C247.439 195.4 247.663 196.2 247.663 197L248 202.6L245.306 202.7L244.969 197.3C244.969 196.5 244.633 195.9 244.184 195.5C243.735 195.1 243.061 194.9 242.388 194.9C241.602 194.9 241.041 195.2 240.592 195.6C240.143 196 239.918 196.7 240.031 197.5L240.367 202.9L237.673 203L237 190.1L239.694 190L239.918 194.5C240.255 194.1 240.704 193.7 241.265 193.4C241.827 193.1 242.5 193 243.286 192.9C243.959 193 244.745 193.1 245.418 193.4Z" fill="white"/>
<path d="M259.794 197.532L252.494 198.123C252.597 198.951 252.905 199.66 253.419 200.014C253.933 200.487 254.448 200.606 255.167 200.606C256.093 200.487 256.812 200.014 257.018 199.069L259.692 198.832C259.486 200.014 258.972 200.96 258.149 201.669C257.327 202.497 256.298 202.852 255.27 202.97C254.242 203.088 253.419 202.852 252.7 202.379C251.877 201.906 251.26 201.315 250.849 200.369C250.335 199.423 250.129 198.478 250.026 197.296C249.923 196.113 250.129 195.049 250.54 194.104C250.952 193.158 251.466 192.449 252.185 191.976C252.905 191.503 253.831 191.148 254.756 191.03C255.681 190.912 256.607 191.148 257.327 191.621C258.149 192.094 258.766 192.685 259.177 193.513C259.692 194.34 259.897 195.404 260 196.35C259.897 196.823 259.897 197.177 259.794 197.532ZM257.224 195.759C257.121 195.049 256.915 194.458 256.401 193.986C255.887 193.513 255.373 193.394 254.653 193.394C254.036 193.394 253.522 193.749 253.111 194.222C252.7 194.695 252.494 195.286 252.391 196.113L257.224 195.759Z" fill="white"/>
<path d="M261.508 194.197C261.975 193.223 262.558 192.492 263.374 192.004C264.19 191.395 265.122 191.03 266.171 191.03C267.57 190.908 268.736 191.152 269.669 191.883C270.601 192.614 271.417 193.588 271.767 194.806L268.736 195.05C268.503 194.563 268.27 194.197 267.803 193.832C267.337 193.588 266.871 193.466 266.288 193.466C265.472 193.588 264.772 193.954 264.423 194.563C264.073 195.172 263.84 196.146 263.84 197.243C263.956 198.339 264.19 199.314 264.772 199.679C265.355 200.166 265.938 200.532 266.871 200.41C268.036 200.288 268.736 199.679 268.969 198.583L272 198.339C271.767 199.679 271.184 200.654 270.368 201.506C269.435 202.359 268.27 202.846 266.987 202.968C265.822 203.09 264.889 202.846 264.073 202.481C263.14 201.994 262.441 201.385 261.975 200.41C261.392 199.436 261.042 198.461 261.042 197.243C260.925 196.268 261.042 195.05 261.508 194.197Z" fill="white"/>
<path d="M280.624 201.427L276.594 197.076L277.03 201.771L274.416 202L273 187.229L275.614 187L276.376 195.359L279.426 190.321L282.911 189.977L278.772 196.046L284 201.084L280.624 201.427Z" fill="white"/>
<path d="M89.0604 108.087L87.6093 124.576L84.3116 124.312L85.235 113.627L79.8266 123.916L77.3203 123.652L73.7587 112.572L72.8354 123.257L69.5376 122.993L70.9886 106.504L74.814 106.768L79.0352 119.563L85.3669 107.691L89.0604 108.087Z" fill="white"/>
<path d="M95.1284 111.911L94.205 124.97L90.9072 124.706L91.8306 111.647L95.1284 111.911ZM92.2263 109.537C91.8306 109.141 91.6987 108.613 91.6987 108.086C91.6987 107.558 91.9625 107.03 92.3582 106.766C92.754 106.371 93.2816 106.239 93.8093 106.371C94.3369 106.503 94.8645 106.635 95.2603 107.03C95.656 107.426 95.7879 107.954 95.7879 108.481C95.7879 109.009 95.5241 109.537 95.1284 109.8C94.7326 110.196 94.205 110.328 93.6773 110.196C93.0178 110.196 92.6221 109.932 92.2263 109.537Z" fill="white"/>
<path d="M101.988 107.954L100.8 125.498L97.5027 125.235L98.6899 107.69L101.988 107.954Z" fill="white"/>
<path d="M108.451 108.35L107.396 125.894L104.098 125.63L105.153 108.086L108.451 108.35Z" fill="white"/>
<path d="M114.651 113.099L113.992 126.29L110.694 126.158L111.353 112.967L114.651 113.099ZM111.617 110.856C111.221 110.461 111.09 109.933 111.09 109.405C111.09 108.878 111.353 108.35 111.749 108.086C112.145 107.691 112.672 107.559 113.2 107.559C113.728 107.559 114.255 107.822 114.651 108.218C115.047 108.614 115.179 109.142 115.179 109.669C115.179 110.197 114.915 110.724 114.519 110.988C114.124 111.384 113.596 111.516 113.068 111.516C112.541 111.384 112.013 111.252 111.617 110.856Z" fill="white"/>
<path d="M119.532 125.894C118.608 125.235 117.817 124.443 117.289 123.388C116.761 122.333 116.498 121.145 116.63 119.826C116.63 118.507 117.025 117.32 117.685 116.265C118.344 115.209 119.136 114.55 120.191 114.022C121.246 113.495 122.434 113.231 123.621 113.363C124.94 113.363 125.995 113.758 127.05 114.418C128.106 115.078 128.765 115.869 129.425 116.924C130.084 117.98 130.216 119.167 130.216 120.486C130.216 121.805 129.821 122.992 129.161 124.047C128.502 125.103 127.71 125.762 126.523 126.29C125.468 126.818 124.28 127.081 122.961 126.95C121.642 126.818 120.587 126.554 119.532 125.894ZM124.808 123.652C125.336 123.388 125.731 122.992 126.127 122.333C126.523 121.805 126.655 121.014 126.655 120.222C126.655 119.035 126.391 117.98 125.863 117.32C125.336 116.66 124.412 116.265 123.489 116.265C122.566 116.265 121.774 116.529 121.115 117.188C120.455 117.848 120.059 118.771 120.059 120.09C120.059 121.277 120.323 122.333 120.851 122.992C121.378 123.652 122.17 124.047 123.225 124.047C123.753 124.047 124.28 123.916 124.808 123.652Z" fill="white"/>
<path d="M143.671 115.605C144.595 116.661 144.99 117.98 144.99 119.827L144.727 127.477L141.429 127.346L141.693 120.09C141.693 119.035 141.429 118.244 141.033 117.716C140.505 117.188 139.846 116.793 138.922 116.793C137.999 116.793 137.208 117.056 136.68 117.584C136.152 118.112 135.889 118.903 135.757 119.959L135.493 127.214L132.195 127.082L132.591 113.891L135.889 114.023V115.605C136.416 115.078 136.944 114.682 137.603 114.286C138.263 114.023 139.054 113.891 139.846 113.891C141.561 114.023 142.748 114.55 143.671 115.605Z" fill="white"/>
<path d="M150.003 127.346C149.211 126.95 148.552 126.423 148.024 125.763C147.496 125.103 147.233 124.312 147.233 123.521L150.53 123.652C150.53 124.18 150.794 124.576 151.19 124.972C151.586 125.367 152.113 125.499 152.773 125.499C153.432 125.499 153.96 125.367 154.224 125.103C154.62 124.84 154.752 124.576 154.752 124.18C154.752 123.784 154.488 123.389 154.092 123.257C153.696 122.993 153.037 122.729 151.981 122.465C151.058 122.201 150.267 121.938 149.607 121.674C148.948 121.41 148.42 121.014 148.024 120.487C147.628 119.959 147.365 119.299 147.365 118.376C147.365 117.585 147.628 116.925 148.024 116.397C148.42 115.87 149.079 115.342 149.871 115.078C150.662 114.814 151.586 114.551 152.641 114.683C154.224 114.683 155.411 115.078 156.335 116.002C157.258 116.793 157.786 117.848 157.786 119.168L154.62 119.036C154.62 118.508 154.356 118.112 153.96 117.716C153.564 117.453 153.037 117.189 152.377 117.189C151.718 117.189 151.322 117.321 150.926 117.453C150.53 117.585 150.399 117.98 150.399 118.376C150.399 118.772 150.662 119.168 151.058 119.431C151.454 119.695 152.113 119.959 153.169 120.223C154.092 120.487 154.883 120.75 155.543 121.014C156.203 121.278 156.73 121.674 157.126 122.201C157.522 122.729 157.786 123.389 157.786 124.312C157.786 125.103 157.522 125.763 157.126 126.291C156.73 126.818 156.071 127.346 155.279 127.61C154.488 127.874 153.564 128.137 152.509 128.006C151.85 127.874 150.926 127.742 150.003 127.346Z" fill="white"/>
<path d="M168.866 127.345C167.811 126.817 167.02 126.026 166.492 124.971C165.964 123.915 165.7 122.728 165.7 121.409C165.7 120.09 165.964 118.903 166.624 117.847C167.283 116.792 168.075 116.001 169.13 115.473C170.185 114.945 171.373 114.682 172.56 114.682C173.879 114.682 174.934 114.945 175.989 115.605C177.045 116.133 177.836 116.924 178.364 117.979C178.892 119.035 179.287 120.222 179.155 121.541C179.023 122.86 178.892 124.047 178.232 125.103C177.572 126.158 176.781 126.949 175.726 127.477C174.67 128.005 173.483 128.268 172.296 128.268C170.977 128.268 169.922 128.005 168.866 127.345ZM174.011 124.971C174.538 124.707 174.934 124.311 175.33 123.652C175.594 123.124 175.858 122.332 175.858 121.541C175.858 120.354 175.594 119.299 174.934 118.639C174.275 117.979 173.483 117.584 172.56 117.584C171.636 117.584 170.845 117.847 170.185 118.507C169.526 119.167 169.262 120.09 169.13 121.409C169.13 122.596 169.394 123.652 170.053 124.311C170.713 124.971 171.505 125.366 172.428 125.366C172.956 125.366 173.483 125.234 174.011 124.971Z" fill="white"/>
<path d="M187.598 117.716H185.355V128.137H181.926V117.716H180.475V114.946H181.926V114.287C181.926 112.704 182.453 111.517 183.377 110.725C184.3 109.934 185.619 109.67 187.598 109.67V112.44C186.806 112.44 186.279 112.572 185.883 112.836C185.619 113.1 185.355 113.627 185.355 114.419V114.946H187.598V117.716Z" fill="white"/>
<path d="M195.249 117.979C195.776 116.924 196.568 116.133 197.491 115.605C198.414 115.077 199.602 114.682 200.921 114.682C202.504 114.682 203.955 115.077 205.01 115.869C206.065 116.66 206.857 117.847 207.252 119.299H203.691C203.559 118.771 203.163 118.243 202.767 117.979C202.372 117.716 201.712 117.452 201.053 117.452C200.129 117.452 199.338 117.847 198.81 118.507C198.283 119.167 198.019 120.222 198.019 121.409C198.019 122.596 198.283 123.652 198.81 124.311C199.338 124.971 200.129 125.366 201.053 125.366C202.372 125.366 203.295 124.707 203.691 123.52H207.252C206.857 124.971 206.197 126.026 205.142 126.949C204.087 127.873 202.767 128.268 201.053 128.268C199.734 128.268 198.678 128.005 197.623 127.477C196.7 126.949 195.908 126.158 195.249 125.103C194.721 124.047 194.457 122.86 194.325 121.541C194.457 120.222 194.721 119.035 195.249 117.979Z" fill="white"/>
<path d="M212.001 127.347C210.946 126.819 210.154 126.028 209.627 124.973C208.967 123.917 208.703 122.73 208.703 121.411C208.703 120.092 208.967 118.905 209.495 117.85C210.022 116.794 210.814 116.003 211.869 115.475C212.925 114.947 213.98 114.552 215.299 114.552C216.618 114.552 217.673 114.816 218.729 115.343C219.784 115.871 220.575 116.662 221.235 117.718C221.894 118.773 222.158 119.96 222.158 121.279C222.158 122.598 221.894 123.786 221.367 124.841C220.839 125.896 219.916 126.688 218.992 127.215C217.937 127.743 216.75 128.139 215.563 128.139C214.244 128.139 213.056 127.875 212.001 127.347ZM217.146 124.709C217.673 124.445 218.069 123.917 218.333 123.39C218.597 122.862 218.729 122.071 218.729 121.279C218.729 120.092 218.333 119.037 217.673 118.377C217.014 117.718 216.222 117.454 215.299 117.454C214.376 117.454 213.584 117.85 212.925 118.509C212.265 119.169 212.001 120.224 212.001 121.411C212.001 122.598 212.397 123.654 213.056 124.313C213.716 124.973 214.507 125.237 215.431 125.237C215.958 125.105 216.618 124.973 217.146 124.709Z" fill="white"/>
<path d="M244.583 115.209C245.638 116.132 246.166 117.583 246.166 119.298L246.43 126.949L243.132 127.081L242.868 119.826C242.868 118.77 242.604 117.979 242.077 117.451C241.549 116.924 240.758 116.66 239.966 116.66C239.043 116.66 238.383 116.924 237.856 117.583C237.328 118.111 237.064 118.902 237.196 119.958L237.46 127.213L234.162 127.345L233.898 120.09C233.898 119.034 233.634 118.243 233.107 117.715C232.579 117.187 231.788 116.924 230.996 116.924C230.073 116.924 229.413 117.187 228.886 117.847C228.358 118.507 228.094 119.166 228.226 120.221L228.49 127.477L225.192 127.608L224.796 114.417L228.094 114.285V115.868C228.49 115.341 229.018 114.813 229.677 114.549C230.337 114.154 231.128 114.022 231.92 114.022C232.975 114.022 233.898 114.154 234.69 114.549C235.481 114.945 236.141 115.605 236.668 116.396C237.064 115.605 237.724 114.945 238.515 114.549C239.307 114.022 240.23 113.758 241.153 113.758C242.209 113.758 243.528 114.285 244.583 115.209Z" fill="white"/>
<path d="M254.08 113.891C254.872 113.495 255.663 113.231 256.587 113.231C257.774 113.231 258.697 113.363 259.621 113.891C260.544 114.419 261.336 115.21 261.863 116.133C262.391 117.057 262.787 118.244 262.787 119.695C262.787 121.014 262.655 122.201 262.127 123.257C261.599 124.312 260.94 125.103 260.016 125.763C259.093 126.423 258.17 126.686 256.982 126.818C256.059 126.818 255.136 126.686 254.344 126.291C253.553 125.895 253.025 125.499 252.498 124.84L252.893 133.018L249.595 133.15L248.672 113.759L251.97 113.627L252.102 115.474C252.761 114.814 253.289 114.287 254.08 113.891ZM258.961 117.716C258.565 117.189 258.17 116.793 257.642 116.397C257.114 116.133 256.455 116.002 255.927 116.002C255.268 116.002 254.74 116.265 254.212 116.529C253.685 116.925 253.289 117.321 253.025 117.98C252.761 118.64 252.629 119.299 252.629 120.091C252.629 120.882 252.893 121.542 253.157 122.069C253.553 122.597 253.949 123.125 254.476 123.389C255.004 123.652 255.531 123.784 256.191 123.784C256.851 123.784 257.378 123.52 257.906 123.257C258.434 122.861 258.829 122.465 259.093 121.806C259.357 121.146 259.489 120.487 259.489 119.695C259.489 119.036 259.225 118.376 258.961 117.716Z" fill="white"/>
<path d="M265.029 116.001C265.557 114.946 266.216 114.154 267.008 113.495C267.799 112.835 268.854 112.571 270.042 112.44C270.965 112.44 271.888 112.571 272.68 112.835C273.471 113.231 273.999 113.627 274.527 114.286L274.395 112.44L277.693 112.308L278.484 125.499L275.186 125.631L275.054 123.652C274.659 124.311 274.131 124.839 273.339 125.235C272.548 125.631 271.757 125.894 270.833 126.026C269.778 126.026 268.723 125.894 267.799 125.367C266.876 124.839 266.084 124.048 265.557 123.124C265.029 122.069 264.633 120.882 264.501 119.563C264.238 118.244 264.501 117.056 265.029 116.001ZM274.131 117.056C273.735 116.529 273.339 116.133 272.812 115.737C272.284 115.473 271.625 115.342 271.097 115.342C270.437 115.342 269.91 115.605 269.382 115.869C268.854 116.133 268.459 116.661 268.195 117.32C267.931 117.98 267.799 118.639 267.799 119.431C267.799 120.222 268.063 120.882 268.459 121.541C268.854 122.201 269.25 122.597 269.778 122.86C270.306 123.124 270.833 123.256 271.493 123.256C272.152 123.256 272.68 122.992 273.208 122.729C273.735 122.465 274.131 121.937 274.395 121.278C274.659 120.618 274.79 119.958 274.79 119.167C274.659 118.244 274.527 117.584 274.131 117.056Z" fill="white"/>
<path d="M291.807 112.703C292.862 113.626 293.39 114.945 293.522 116.792L294.05 124.443L290.752 124.707L290.224 117.452C290.092 116.396 289.828 115.605 289.301 115.077C288.773 114.55 287.982 114.286 287.058 114.418C286.135 114.418 285.475 114.813 284.948 115.473C284.42 116.133 284.288 116.924 284.288 117.979L284.816 125.234L281.518 125.498L280.595 112.439L283.892 112.175L284.024 113.758C284.42 113.099 284.948 112.703 285.607 112.307C286.267 111.911 287.058 111.779 287.85 111.648C289.565 111.252 290.752 111.779 291.807 112.703Z" fill="white"/>
<path d="M296.292 108.878C295.896 108.482 295.632 108.086 295.632 107.559C295.632 107.031 295.764 106.504 296.16 106.108C296.556 105.712 296.951 105.448 297.611 105.448C298.271 105.448 298.666 105.58 299.062 105.844C299.458 106.108 299.722 106.635 299.722 107.163C299.722 107.691 299.59 108.218 299.194 108.614C298.798 109.01 298.402 109.274 297.743 109.274C297.215 109.406 296.688 109.274 296.292 108.878ZM299.458 110.725L300.513 123.784L297.215 124.048L296.16 110.988L299.458 110.725Z" fill="white"/>
<path d="M315.419 117.056L305.79 117.848C305.922 118.771 306.317 119.563 306.977 119.959C307.636 120.486 308.296 120.618 309.219 120.618C310.407 120.486 311.33 119.959 311.726 118.771L315.287 118.508C315.023 119.827 314.364 120.882 313.441 121.805C312.517 122.729 311.198 123.256 309.615 123.388C308.296 123.52 307.241 123.256 306.185 122.861C305.13 122.333 304.339 121.673 303.679 120.75C303.02 119.827 302.624 118.639 302.492 117.32C302.36 116.001 302.492 114.814 303.02 113.627C303.547 112.572 304.207 111.648 305.13 111.121C306.054 110.461 307.241 110.065 308.428 109.933C309.615 109.801 310.802 109.933 311.858 110.461C312.913 110.857 313.704 111.648 314.364 112.572C315.023 113.495 315.419 114.682 315.419 115.869C315.419 116.133 315.419 116.661 315.419 117.056ZM311.858 115.078C311.726 114.286 311.462 113.627 310.802 113.099C310.143 112.703 309.351 112.44 308.56 112.572C307.768 112.703 307.109 112.967 306.581 113.495C306.054 114.023 305.79 114.814 305.79 115.605L311.858 115.078Z" fill="white"/>
<path d="M320.432 121.673C319.508 121.41 318.849 120.882 318.189 120.354C317.662 119.695 317.266 119.035 317.134 118.244L320.432 117.848C320.564 118.376 320.827 118.771 321.355 119.035C321.883 119.299 322.41 119.431 323.07 119.431C323.729 119.431 324.125 119.167 324.521 118.903C324.785 118.639 325.049 118.244 324.917 117.848C324.917 117.452 324.653 117.188 324.125 116.925C323.729 116.793 322.938 116.529 322.015 116.397C320.959 116.265 320.168 116.133 319.508 115.869C318.849 115.737 318.321 115.342 317.793 114.814C317.266 114.286 317.002 113.627 316.87 112.835C316.738 112.176 317.002 111.384 317.266 110.725C317.662 110.065 318.189 109.538 318.981 109.142C319.772 108.746 320.564 108.482 321.619 108.35C323.202 108.218 324.521 108.482 325.444 109.142C326.368 109.801 327.027 110.857 327.291 112.176L324.125 112.44C323.993 111.912 323.729 111.516 323.334 111.252C322.938 110.989 322.41 110.857 321.751 110.989C321.091 110.989 320.695 111.252 320.432 111.516C320.168 111.78 320.036 112.044 320.036 112.44C320.036 112.835 320.3 113.231 320.827 113.363C321.355 113.495 322.015 113.759 322.938 113.891C323.861 114.023 324.653 114.154 325.312 114.418C325.972 114.55 326.5 114.946 327.027 115.474C327.555 116.001 327.819 116.661 327.951 117.452C328.082 118.244 327.951 118.903 327.555 119.563C327.159 120.222 326.631 120.75 325.84 121.146C325.049 121.541 324.257 121.805 323.202 121.937C322.278 122.069 321.223 122.069 320.432 121.673Z" fill="white"/>
<path d="M138 254.636L136.444 266L134.157 265.727L135.163 258.364L131.137 265.273L129.399 265L127.294 257.273L126.288 264.636L124 264.364L125.556 253L128.118 253.364L130.588 262.273L135.346 254.364L138 254.636Z" fill="white"/>
<path d="M139.78 259.723C140.246 259.131 140.804 258.623 141.456 258.369C142.108 258.031 142.853 257.946 143.692 258.031C144.343 258.115 144.995 258.284 145.461 258.538C145.927 258.877 146.299 259.215 146.579 259.638L146.672 258.454L149 258.623L148.162 267L145.834 266.831L145.927 265.562C145.554 265.9 145.182 266.238 144.623 266.408C144.064 266.662 143.412 266.662 142.76 266.662C142.015 266.577 141.27 266.323 140.711 265.9C140.152 265.477 139.687 264.885 139.314 264.208C139.035 263.531 138.942 262.769 139.035 261.838C139.128 261.077 139.314 260.4 139.78 259.723ZM146.113 261.246C145.927 260.823 145.647 260.569 145.275 260.315C144.902 260.061 144.53 259.977 144.064 259.892C143.598 259.892 143.226 259.892 142.853 260.061C142.481 260.231 142.108 260.484 141.829 260.823C141.549 261.161 141.363 261.584 141.363 262.092C141.27 262.6 141.363 263.023 141.549 263.446C141.736 263.869 142.015 264.123 142.388 264.377C142.76 264.631 143.133 264.715 143.505 264.8C143.971 264.8 144.343 264.8 144.716 264.631C145.088 264.461 145.461 264.208 145.74 263.869C146.02 263.531 146.113 263.108 146.206 262.6C146.299 262.092 146.299 261.669 146.113 261.246Z" fill="white"/>
<path d="M158.166 259.509C158.802 260.264 159.074 261.302 158.983 262.528L158.62 268L156.352 267.811L156.715 262.623C156.805 261.868 156.624 261.302 156.261 260.83C155.898 260.358 155.444 260.17 154.809 260.17C154.174 260.17 153.629 260.264 153.267 260.641C152.904 261.019 152.631 261.585 152.631 262.34L152.268 267.528L150 267.34L150.635 258L152.904 258.189L152.813 259.321C153.176 258.943 153.539 258.66 154.083 258.472C154.537 258.283 155.081 258.189 155.626 258.189C156.715 258.283 157.531 258.755 158.166 259.509Z" fill="white"/>
<path d="M170 259.291L169.531 269L167.188 268.903L167.281 267.641C167 268.029 166.531 268.32 166.063 268.612C165.594 268.903 165.031 268.903 164.469 268.903C163.719 268.903 163.063 268.709 162.594 268.32C162.031 267.932 161.656 267.447 161.375 266.864C161.094 266.184 161 265.505 161 264.631L161.281 259L163.625 259.097L163.344 264.437C163.344 265.214 163.437 265.796 163.812 266.282C164.187 266.67 164.656 266.961 165.313 266.961C165.969 266.961 166.531 266.767 166.906 266.379C167.281 265.99 167.469 265.408 167.562 264.631L167.844 259.291H170Z" fill="white"/>
<path d="M171.871 261.308C172.247 260.538 172.812 259.962 173.471 259.577C174.13 259.192 174.883 259 175.636 259C176.294 259 176.953 259.192 177.424 259.481C177.894 259.769 178.365 260.154 178.647 260.635V259.288L181 259.385L180.718 269L178.365 268.904V267.462C178.082 267.942 177.612 268.231 177.047 268.519C176.483 268.808 175.918 268.904 175.165 268.904C174.412 268.904 173.659 268.615 173 268.231C172.342 267.846 171.871 267.173 171.495 266.404C171.118 265.635 170.93 264.769 171.024 263.808C171.306 262.846 171.495 261.981 171.871 261.308ZM178.365 262.558C178.177 262.173 177.894 261.788 177.518 261.596C177.141 261.404 176.765 261.212 176.294 261.212C175.824 261.212 175.447 261.308 175.071 261.5C174.694 261.692 174.412 261.981 174.13 262.462C173.847 262.942 173.753 263.327 173.753 263.904C173.753 264.481 173.847 264.962 174.036 265.442C174.224 265.923 174.506 266.212 174.883 266.5C175.259 266.692 175.636 266.885 176.106 266.885C176.577 266.885 176.953 266.788 177.33 266.596C177.706 266.404 177.988 266.019 178.271 265.635C178.553 265.25 178.647 264.673 178.647 264.096C178.647 263.519 178.553 262.942 178.365 262.558Z" fill="white"/>
<path d="M186 257L185.778 269H183L183.222 257H186Z" fill="white"/>
<path d="M191.798 259.884C192.331 258.953 192.952 258.302 193.839 257.744C194.726 257.186 195.613 257 196.677 257C197.919 257 198.984 257.279 199.96 258.023C200.935 258.674 201.556 259.605 201.911 260.814H199.339C199.073 260.256 198.718 259.884 198.274 259.605C197.831 259.326 197.298 259.233 196.677 259.233C196.056 259.233 195.435 259.419 194.992 259.698C194.46 259.977 194.105 260.442 193.839 261.093C193.573 261.744 193.395 262.395 193.395 263.14C193.395 263.884 193.573 264.628 193.839 265.186C194.105 265.744 194.548 266.209 194.992 266.488C195.524 266.767 196.056 266.954 196.766 266.954C197.387 266.954 197.919 266.767 198.363 266.488C198.806 266.209 199.161 265.744 199.427 265.186H202C201.645 266.395 201.024 267.326 200.048 267.977C199.161 268.628 198.008 269 196.766 269C195.702 269 194.726 268.721 193.839 268.256C192.952 267.791 192.331 267.047 191.798 266.116C191.266 265.186 191 264.163 191 263.047C191.089 261.837 191.355 260.814 191.798 259.884Z" fill="white"/>
<path d="M212.724 260L213 268.824L210.704 268.912V267.765C210.429 268.118 210.061 268.471 209.602 268.647C209.143 268.912 208.592 269 208.041 269C207.306 269 206.663 268.912 206.112 268.647C205.561 268.382 205.102 267.941 204.735 267.412C204.367 266.882 204.276 266.176 204.184 265.382L204 260.265L206.296 260.176L206.388 265.029C206.388 265.735 206.571 266.265 206.939 266.618C207.306 266.971 207.857 267.147 208.408 267.147C209.051 267.147 209.51 266.971 209.878 266.529C210.245 266.176 210.429 265.559 210.337 264.941L210.245 260.088L212.724 260Z" fill="white"/>
<path d="M218.333 259.485C218.772 259.194 219.298 259 219.912 259L220 261.524H219.386C218.684 261.524 218.158 261.718 217.807 262.107C217.456 262.495 217.281 263.078 217.368 264.049L217.544 268.903L215.351 269L215 259.291L217.193 259.194L217.281 260.65C217.456 260.165 217.895 259.777 218.333 259.485Z" fill="white"/>
<path d="M221.41 261.423C221.786 260.731 222.256 260.212 222.82 259.779C223.478 259.346 224.137 259.173 224.983 259.087C225.641 259.087 226.299 259.173 226.863 259.346C227.427 259.519 227.803 259.865 228.179 260.298L228.085 259.087L230.436 259L231 267.654L228.65 267.74L228.555 266.442C228.273 266.875 227.897 267.221 227.333 267.481C226.769 267.74 226.205 267.913 225.547 268C224.795 268 224.043 267.913 223.384 267.567C222.726 267.221 222.162 266.702 221.786 266.096C221.41 265.49 221.128 264.625 221.034 263.76C220.94 262.894 221.034 262.115 221.41 261.423ZM227.897 262.029C227.615 261.683 227.333 261.423 226.957 261.163C226.581 260.99 226.111 260.904 225.735 260.904C225.265 260.904 224.889 261.077 224.513 261.25C224.137 261.51 223.855 261.769 223.666 262.202C223.478 262.635 223.384 263.067 223.384 263.587C223.384 264.106 223.572 264.538 223.855 264.971C224.137 265.317 224.419 265.663 224.795 265.837C225.171 266.01 225.641 266.096 226.017 266.096C226.487 266.096 226.863 265.923 227.239 265.75C227.615 265.49 227.897 265.231 228.085 264.798C228.273 264.365 228.367 263.933 228.367 263.413C228.367 262.894 228.179 262.462 227.897 262.029Z" fill="white"/>
<path d="M235.015 260.072L235.426 264.322C235.426 264.587 235.529 264.853 235.735 264.942C235.941 265.03 236.25 265.119 236.559 265.119L237.794 265.03L238 266.889L236.353 266.978C234.191 267.155 232.956 266.27 232.853 264.499L232.441 260.249L231.206 260.338L231 258.479L232.235 258.39L232.029 256.177L234.603 256L234.809 258.213L237.074 258.036L237.279 259.895L235.015 260.072Z" fill="white"/>
<path d="M238.513 256.397C238.205 256.121 238 255.844 238 255.475C238 255.106 238.103 254.738 238.308 254.461C238.615 254.184 238.923 254 239.436 254C239.846 254 240.256 254.092 240.564 254.277C240.872 254.553 241.077 254.83 241.077 255.199C241.077 255.567 240.974 255.936 240.769 256.213C240.462 256.489 240.154 256.674 239.641 256.674C239.231 256.766 238.821 256.674 238.513 256.397ZM241.077 257.688L242 266.816L239.436 267L238.513 257.872L241.077 257.688Z" fill="white"/>
<path d="M245.572 265.704C244.872 265.442 244.258 264.916 243.82 264.303C243.382 263.69 243.119 262.901 243.032 262.026C242.944 261.15 243.032 260.361 243.382 259.573C243.733 258.872 244.171 258.259 244.784 257.821C245.397 257.383 246.186 257.12 246.974 257.033C247.85 256.945 248.551 257.033 249.34 257.296C250.041 257.558 250.654 258.084 251.092 258.697C251.53 259.31 251.881 260.099 251.968 260.974C252.056 261.85 251.968 262.639 251.618 263.427C251.267 264.215 250.829 264.741 250.128 265.179C249.515 265.617 248.727 265.88 247.85 265.967C247.062 266.055 246.273 265.967 245.572 265.704ZM248.727 263.69C249.077 263.427 249.34 263.164 249.428 262.726C249.603 262.288 249.69 261.85 249.603 261.325C249.515 260.536 249.252 259.923 248.727 259.485C248.201 259.047 247.675 258.96 247.062 258.96C246.449 259.047 245.923 259.31 245.572 259.836C245.222 260.361 245.047 260.974 245.134 261.85C245.222 262.726 245.485 263.252 245.923 263.69C246.361 264.128 246.887 264.215 247.588 264.215C248.026 264.04 248.376 263.865 248.727 263.69Z" fill="white"/>
<path d="M260.706 256.663C261.44 257.212 261.991 258.128 262.174 259.318L263 264.627L260.706 264.993L259.972 260.05C259.881 259.318 259.606 258.769 259.147 258.494C258.688 258.128 258.229 258.036 257.587 258.128C256.945 258.219 256.486 258.494 256.211 258.952C255.936 259.409 255.844 259.959 255.936 260.691L256.67 265.634L254.376 266L253 256.938L255.294 256.572L255.477 257.67C255.752 257.212 256.028 256.846 256.486 256.572C256.945 256.297 257.404 256.114 257.954 256.022C258.963 255.931 259.881 256.114 260.706 256.663Z" fill="white"/>
</g>
<path d="M211.9 415.1H169.3C167.9 415.1 166.6 414.5 165.6 413.6C164.6 412.6 164.1 411.3 164.1 409.9V390.4C164.1 390.1 164.2 389.8 164.3 389.6C164.4 389.3 164.6 389.1 164.8 388.9L187.4 367.5C188.3 366.6 189.5 366.2 190.7 366.2C191.9 366.2 193.1 366.7 194 367.5L215.5 387.9C216 388.4 216.5 389 216.8 389.7C217.1 390.4 217.2 391.1 217.2 391.9V410C217.2 410.7 217.1 411.4 216.8 412C216.5 412.6 216.1 413.2 215.7 413.7C215.2 414.2 214.6 414.6 214 414.8C213.2 415 212.5 415.1 211.9 415.1Z" fill="#FB9145"/>
<path opacity="0.1" d="M164 390.7H216.7V412C216.7 412.8 216.4 413.7 215.8 414.2C215.2 414.8 214.4 415.1 213.6 415.1H167.3C166.5 415.1 165.6 414.8 165.1 414.2C164.5 413.6 164.2 412.8 164.2 412V390.7H164Z" fill="black"/>
<path d="M207.2 373.9H173.8C172.2 373.9 170.9 375.2 170.9 376.8V410.2C170.9 411.8 172.2 413.1 173.8 413.1H207.2C208.8 413.1 210.1 411.8 210.1 410.2V376.8C210.1 375.2 208.8 373.9 207.2 373.9Z" fill="white"/>
<path d="M209.9 382C214.87 382 218.9 377.971 218.9 373C218.9 368.029 214.87 364 209.9 364C204.929 364 200.9 368.029 200.9 373C200.9 377.971 204.929 382 209.9 382Z" fill="#F47669"/>
<path d="M208 370.2V368.4H211.3V378.4H209.3V370.2H208Z" fill="white"/>
<path d="M198.8 398.2C193.6 400.7 187.5 400.7 182.3 398.2L165.5 390.1C165.3 390 165.2 390 165 390C164.8 390 164.7 390.1 164.5 390.2C164.4 390.3 164.2 390.4 164.1 390.6C164 390.8 164 390.9 164 391.1V412C164 412.4 164.1 412.8 164.2 413.2C164.4 413.6 164.6 413.9 164.9 414.2C165.2 414.5 165.5 414.7 165.9 414.9C166.3 415.1 166.7 415.1 167.1 415.1H213.9C214.3 415.1 214.7 415 215.1 414.9C215.5 414.8 215.8 414.5 216.1 414.2C216.4 413.9 216.6 413.6 216.8 413.2C217 412.8 217 412.4 217 412V391.5C217 391.3 216.9 391.1 216.8 390.9C216.7 390.7 216.6 390.6 216.4 390.4C216.2 390.3 216 390.2 215.8 390.2C215.6 390.2 215.4 390.2 215.2 390.3L198.8 398.2Z" fill="#FEC15C"/>
<path opacity="0.4" d="M185.2 377.5H174.2V379H185.2V377.5Z" fill="#BDBDBD"/>
<path opacity="0.4" d="M205.9 383.1H173.4V384H205.9V383.1Z" fill="#BDBDBD"/>
<path opacity="0.4" d="M205.9 386.1H173.4V387H205.9V386.1Z" fill="#BDBDBD"/>
<path opacity="0.4" d="M205.9 389.1H173.4V390H205.9V389.1Z" fill="#BDBDBD"/>
<path d="M149.6 436.8H147.5L144.1 431.6V436.8H142V428.3H144.1L147.5 433.6V428.3H149.6V436.8ZM157.4 433.3C157.4 433.5 157.4 433.7 157.3 433.9H152.7C152.7 434.4 152.9 434.8 153.1 435C153.3 435.2 153.6 435.3 154 435.3C154.3 435.3 154.6 435.2 154.8 435.1C155 434.9 155.1 434.8 155.2 434.5H157.4C157.3 435 157.1 435.4 156.8 435.8C156.5 436.2 156.1 436.5 155.7 436.7C155.2 436.9 154.7 437 154.2 437C153.5 437 153 436.9 152.4 436.6C151.9 436.3 151.5 435.9 151.2 435.4C150.9 434.9 150.8 434.3 150.8 433.6C150.8 432.9 150.9 432.3 151.2 431.8C151.5 431.3 151.9 430.9 152.4 430.6C152.9 430.3 153.5 430.2 154.2 430.2C154.9 430.2 155.4 430.3 156 430.6C156.6 430.9 156.9 431.3 157.2 431.8C157.3 432.1 157.4 432.6 157.4 433.3ZM155.3 433C155.3 432.6 155.2 432.2 154.9 432C154.7 431.8 154.4 431.7 154 431.7C153.6 431.7 153.3 431.8 153.1 432C152.9 432.2 152.7 432.6 152.7 433H155.3ZM168.3 430.1L166.6 436.8H164.3L163.1 432.3L161.9 436.8H159.6L157.9 430.1H160L160.9 434.9L162.1 430.1H164.3L165.6 434.9L166.5 430.1H168.3ZM179 432.5C179 433.3 178.8 434.1 178.5 434.7C178.1 435.3 177.6 435.8 177 436.2C176.3 436.6 175.6 436.7 174.6 436.7H171.4V428.2H174.6C175.5 428.2 176.3 428.4 177 428.7C177.7 429.1 178.2 429.5 178.5 430.2C178.9 431 179 431.7 179 432.5ZM174.4 435C175.2 435 175.8 434.8 176.3 434.4C176.7 434 177 433.4 177 432.6C177 431.8 176.8 431.2 176.3 430.8C175.9 430.4 175.2 430.2 174.4 430.2H173.4V435H174.4ZM186.6 433.3C186.6 433.5 186.6 433.7 186.5 433.9H181.9C181.9 434.4 182.1 434.8 182.3 435C182.5 435.2 182.8 435.3 183.2 435.3C183.5 435.3 183.8 435.2 184 435.1C184.2 434.9 184.3 434.8 184.4 434.5H186.6C186.5 435 186.3 435.4 186 435.8C185.7 436.2 185.3 436.5 184.9 436.7C184.4 436.9 183.9 437 183.4 437C182.7 437 182.2 436.9 181.6 436.6C181.1 436.3 180.7 435.9 180.4 435.4C180.1 434.9 180 434.3 180 433.6C180 432.9 180.1 432.3 180.4 431.8C180.7 431.3 181.1 430.9 181.6 430.6C182.1 430.3 182.7 430.2 183.4 430.2C184.1 430.2 184.6 430.3 185.2 430.6C185.8 430.9 186.1 431.3 186.4 431.8C186.4 432.1 186.6 432.6 186.6 433.3ZM184.5 433C184.5 432.6 184.4 432.2 184.1 432C183.9 431.8 183.6 431.7 183.2 431.7C182.8 431.7 182.5 431.8 182.3 432C182.1 432.2 181.9 432.6 181.9 433H184.5ZM190.2 430C190.7 430 191.2 430.1 191.5 430.3C191.9 430.5 192.1 430.8 192.3 431.2V430H194.3V436.7H192.3V435.5C192.1 435.9 191.9 436.2 191.5 436.4C191.1 436.6 190.7 436.7 190.2 436.7C189.6 436.7 189.2 436.6 188.7 436.3C188.3 436 187.9 435.6 187.7 435.1C187.5 434.6 187.3 434 187.3 433.3C187.3 432.6 187.4 432 187.7 431.5C188 431 188.3 430.6 188.7 430.3C189.1 430.2 189.6 430 190.2 430ZM190.8 431.8C190.4 431.8 190 431.9 189.7 432.2C189.4 432.5 189.3 432.9 189.3 433.4C189.3 433.9 189.4 434.3 189.7 434.6C190 434.9 190.3 435 190.8 435C191.2 435 191.6 434.9 191.9 434.6C192.2 434.3 192.3 433.9 192.3 433.4C192.3 432.9 192.2 432.5 191.9 432.2C191.6 432 191.3 431.8 190.8 431.8ZM197.8 427.9V436.8H195.7V427.9H197.8ZM207.2 428.3V429.9H203.7V431.8H206.4V433.4H203.7V436.8H201.6V428.3H207.2ZM211.4 430C212.1 430 212.7 430.1 213.2 430.4C213.7 430.7 214.1 431.1 214.4 431.6C214.7 432.1 214.9 432.7 214.9 433.4C214.9 434.1 214.7 434.7 214.4 435.2C214.1 435.7 213.7 436.1 213.2 436.4C212.7 436.7 212.1 436.8 211.4 436.8C210.7 436.8 210.1 436.7 209.6 436.4C209.1 436.1 208.7 435.7 208.4 435.2C208.1 434.7 208 434.1 208 433.4C208 432.7 208.1 432.1 208.4 431.6C208.7 431.1 209.1 430.7 209.6 430.4C210.1 430.2 210.7 430 211.4 430ZM211.4 431.8C211 431.8 210.7 431.9 210.4 432.2C210.1 432.5 210 432.9 210 433.4C210 433.9 210.1 434.3 210.4 434.6C210.7 434.9 211 435 211.4 435C211.8 435 212.1 434.9 212.4 434.6C212.7 434.3 212.8 433.9 212.8 433.4C212.8 432.9 212.7 432.5 212.4 432.2C212.1 431.9 211.8 431.8 211.4 431.8ZM217.9 431.4C218.2 431 218.5 430.7 218.9 430.4C219.3 430.2 219.7 430 220.2 430V432.2H219.6C219.1 432.2 218.6 432.3 218.3 432.5C218 432.7 217.9 433.1 217.9 433.7V436.7H215.8V430H217.9V431.4ZM230.8 428.3L227.9 434V436.8H225.8V434L222.9 428.3H225.3L226.9 431.8L228.5 428.3H230.8ZM234.8 430C235.5 430 236.1 430.1 236.6 430.4C237.1 430.7 237.5 431.1 237.8 431.6C238.1 432.1 238.3 432.7 238.3 433.4C238.3 434.1 238.1 434.7 237.8 435.2C237.5 435.7 237.1 436.1 236.6 436.4C236.1 436.7 235.5 436.8 234.8 436.8C234.1 436.8 233.5 436.7 233 436.4C232.5 436.1 232.1 435.7 231.8 435.2C231.5 434.7 231.4 434.1 231.4 433.4C231.4 432.7 231.5 432.1 231.8 431.6C232.1 431.1 232.5 430.7 233 430.4C233.5 430.2 234.1 430 234.8 430ZM234.8 431.8C234.4 431.8 234.1 431.9 233.8 432.2C233.5 432.5 233.4 432.9 233.4 433.4C233.4 433.9 233.5 434.3 233.8 434.6C234.1 434.9 234.4 435 234.8 435C235.2 435 235.5 434.9 235.8 434.6C236.1 434.3 236.2 433.9 236.2 433.4C236.2 432.9 236.1 432.5 235.8 432.2C235.5 431.9 235.2 431.8 234.8 431.8ZM246 430.1V436.8H243.9V435.6C243.7 436 243.4 436.3 243 436.5C242.6 436.7 242.2 436.8 241.7 436.8C240.9 436.8 240.3 436.5 239.9 436C239.5 435.5 239.2 434.8 239.2 433.9V430H241.2V433.6C241.2 434.1 241.3 434.4 241.5 434.7C241.7 434.9 242.1 435.1 242.5 435.1C242.9 435.1 243.2 435 243.5 434.7C243.7 434.4 243.9 434.1 243.9 433.6V430H246V430.1Z" fill="#555555"/>
<defs>
<filter id="filter0_d_1503_7634" x="0" y="0" width="388.5" height="358.026" filterUnits="userSpaceOnUse" color-interpolation-filters="sRGB">
<feFlood flood-opacity="0" result="BackgroundImageFix"/>
<feColorMatrix in="SourceAlpha" type="matrix" values="0 0 0 0 0 0 0 0 0 0 0 0 0 0 0 0 0 0 127 0" result="hardAlpha"/>
<feOffset dy="5"/>
<feGaussianBlur stdDeviation="5"/>
<feComposite in2="hardAlpha" operator="out"/>
<feColorMatrix type="matrix" values="0 0 0 0 0 0 0 0 0 0 0 0 0 0 0 0 0 0 0.15 0"/>
<feBlend mode="normal" in2="BackgroundImageFix" result="effect1_dropShadow_1503_7634"/>
<feBlend mode="normal" in="SourceGraphic" in2="effect1_dropShadow_1503_7634" result="shape"/>
</filter>
</defs>
</svg>
